<svg width="170" height="91" viewBox="0 0 170 91" fill="none" xmlns="http://www.w3.org/2000/svg">
<path d="M129.599 25.1436C115.304 22.2291 106.265 34.881 103.533 41.5713C101.717 48.1174 105.334 50.0769 108.128 50.852C108.866 51.0567 113.745 51.7796 117.948 52.3108C120.582 52.6438 123.149 53.3791 125.57 54.4697C128.048 55.5863 131.328 56.9743 134.881 58.2112C135.532 58.4377 136.219 58.5657 136.907 58.5312C142.464 58.2525 143.904 54.9137 144.141 52.8374C145.77 44.9857 143.258 28.9125 129.599 25.1436Z" fill="#FFFAE4"/>
<path d="M113.066 19.7479C113.613 24.4631 110.961 28.6444 107.142 29.0871C103.323 29.5298 99.7843 26.0663 99.2376 21.3511C98.691 16.6359 101.344 12.4546 105.162 12.0119C108.981 11.5691 112.52 15.0327 113.066 19.7479Z" fill="#FFFAE4"/>
<path d="M147.239 29.2285C144.341 32.9881 144.46 37.9384 147.505 40.2852C150.55 42.6321 155.367 41.4869 158.265 37.7273C161.163 33.9677 161.044 29.0175 157.999 26.6706C154.954 24.3237 150.137 25.4689 147.239 29.2285Z" fill="#FFFAE4"/>
<path d="M132.055 13.2784C130.389 19.2835 125.511 23.1732 121.16 21.9662C116.81 20.7591 114.633 14.9125 116.3 8.90738C117.966 2.90223 122.843 -0.987408 127.194 0.219618C131.544 1.42664 133.721 7.27326 132.055 13.2784Z" fill="#FFFAE4"/>
<path d="M150.029 18.2651C148.363 24.2702 143.485 28.1599 139.135 26.9529C134.784 25.7458 132.608 19.8992 134.274 13.8941C135.94 7.88892 140.817 3.99928 145.168 5.20631C149.519 6.41333 151.695 12.26 150.029 18.2651Z" fill="#FFFAE4"/>
<path d="M0 53.1197V48.2151L20.2254 23.8326L21.1596 26.5885H0.373679V20.4228H27.8858V25.3273L7.70712 49.7099L6.77292 46.954H28.5864V53.1197H0Z" fill="#FFFAE4"/>
<path d="M44.6097 53.4934C41.9317 53.4934 39.5495 52.9328 37.4631 51.8118C35.4079 50.6908 33.773 49.1649 32.5586 47.2342C31.3753 45.2724 30.7836 43.0459 30.7836 40.5547C30.7836 38.0324 31.3753 35.8059 32.5586 33.8752C33.773 31.9134 35.4079 30.3876 37.4631 29.2977C39.5495 28.1766 41.9317 27.6161 44.6097 27.6161C47.2566 27.6161 49.6232 28.1766 51.7096 29.2977C53.796 30.3876 55.4308 31.8978 56.6141 33.8285C57.7974 35.7592 58.3891 38.0013 58.3891 40.5547C58.3891 43.0459 57.7974 45.2724 56.6141 47.2342C55.4308 49.1649 53.796 50.6908 51.7096 51.8118C49.6232 52.9328 47.2566 53.4934 44.6097 53.4934ZM44.6097 47.5145C45.8242 47.5145 46.9141 47.2342 47.8794 46.6737C48.8447 46.1132 49.6077 45.3191 50.1682 44.2915C50.7287 43.2328 51.009 41.9872 51.009 40.5547C51.009 39.0912 50.7287 37.8456 50.1682 36.818C49.6077 35.7903 48.8447 34.9963 47.8794 34.4357C46.9141 33.8752 45.8242 33.595 44.6097 33.595C43.3952 33.595 42.3054 33.8752 41.34 34.4357C40.3747 34.9963 39.5962 35.7903 39.0045 36.818C38.444 37.8456 38.1638 39.0912 38.1638 40.5547C38.1638 41.9872 38.444 43.2328 39.0045 44.2915C39.5962 45.3191 40.3747 46.1132 41.34 46.6737C42.3054 47.2342 43.3952 47.5145 44.6097 47.5145Z" fill="#FFFAE4"/>
<path d="M75.2174 53.4934C72.5394 53.4934 70.1572 52.9328 68.0708 51.8118C66.0156 50.6908 64.3807 49.1649 63.1663 47.2342C61.983 45.2724 61.3913 43.0459 61.3913 40.5547C61.3913 38.0324 61.983 35.8059 63.1663 33.8752C64.3807 31.9134 66.0156 30.3876 68.0708 29.2977C70.1572 28.1766 72.5394 27.6161 75.2174 27.6161C77.8643 27.6161 80.2309 28.1766 82.3173 29.2977C84.4037 30.3876 86.0385 31.8978 87.2218 33.8285C88.4052 35.7592 88.9968 38.0013 88.9968 40.5547C88.9968 43.0459 88.4052 45.2724 87.2218 47.2342C86.0385 49.1649 84.4037 50.6908 82.3173 51.8118C80.2309 52.9328 77.8643 53.4934 75.2174 53.4934ZM75.2174 47.5145C76.4319 47.5145 77.5218 47.2342 78.4871 46.6737C79.4524 46.1132 80.2154 45.3191 80.7759 44.2915C81.3364 43.2328 81.6167 41.9872 81.6167 40.5547C81.6167 39.0912 81.3364 37.8456 80.7759 36.818C80.2154 35.7903 79.4524 34.9963 78.4871 34.4357C77.5218 33.8752 76.4319 33.595 75.2174 33.595C74.003 33.595 72.9131 33.8752 71.9477 34.4357C70.9824 34.9963 70.2039 35.7903 69.6122 36.818C69.0517 37.8456 68.7715 39.0912 68.7715 40.5547C68.7715 41.9872 69.0517 43.2328 69.6122 44.2915C70.2039 45.3191 70.9824 46.1132 71.9477 46.6737C72.9131 47.2342 74.003 47.5145 75.2174 47.5145Z" fill="#FFFAE4"/>
<path d="M0.934197 90.4875V57.7907H7.19331L21.1128 80.8653H17.7964L31.4824 57.7907H37.6948L37.7882 90.4875H30.6884L30.6416 68.6741H31.9495L21.0194 87.031H17.6096L6.44596 68.6741H8.03409V90.4875H0.934197Z" fill="#FFFAE4"/>
<path d="M60.4462 90.4875V85.583L59.9791 84.5087V75.7272C59.9791 74.1702 59.4964 72.9558 58.5311 72.0839C57.5969 71.212 56.1489 70.776 54.187 70.776C52.848 70.776 51.5246 70.994 50.2167 71.4299C48.94 71.8347 47.8501 72.3953 46.947 73.1115L44.3313 68.0201C45.7014 67.0548 47.3518 66.3074 49.2825 65.778C51.2132 65.2487 53.175 64.984 55.168 64.984C58.9982 64.984 61.972 65.887 64.0895 67.6931C66.207 69.4993 67.2658 72.3174 67.2658 76.1476V90.4875H60.4462ZM52.7858 90.8612C50.8239 90.8612 49.1424 90.5342 47.7411 89.8803C46.3398 89.1952 45.2655 88.2766 44.5181 87.1244C43.7708 85.9723 43.3971 84.6799 43.3971 83.2475C43.3971 81.7528 43.7552 80.4449 44.4714 79.3239C45.2188 78.2029 46.3865 77.3309 47.9746 76.7081C49.5628 76.0542 51.6336 75.7272 54.187 75.7272H60.8666V79.9778H54.9811C53.2684 79.9778 52.0851 80.2581 51.4312 80.8186C50.8084 81.3791 50.497 82.0798 50.497 82.9205C50.497 83.8547 50.8551 84.6021 51.5713 85.1626C52.3186 85.692 53.3307 85.9567 54.6074 85.9567C55.8219 85.9567 56.9118 85.6764 57.8771 85.1159C58.8425 84.5243 59.5431 83.6679 59.9791 82.5469L61.1001 85.91C60.5707 87.5293 59.6054 88.7593 58.2041 89.6001C56.8028 90.4408 54.9967 90.8612 52.7858 90.8612Z" fill="#FFFAE4"/>
<path d="M73.8606 90.4875V65.3577H80.8204V72.4576L79.8395 70.4023C80.5869 68.6273 81.7857 67.2883 83.4361 66.3853C85.0866 65.4511 87.0951 64.984 89.4617 64.984V71.7102C89.1503 71.679 88.8701 71.6635 88.6209 71.6635C88.3718 71.6323 88.1071 71.6168 87.8269 71.6168C85.8339 71.6168 84.2147 72.1929 82.9691 73.345C81.7546 74.4661 81.1474 76.2255 81.1474 78.6232V90.4875H73.8606Z" fill="#FFFAE4"/>
<path d="M99.8656 85.3495L100.052 76.4746L111.777 65.3577H120.465L109.208 76.8016L105.424 79.8844L99.8656 85.3495ZM93.84 90.4875V55.8288H101.127V90.4875H93.84ZM112.571 90.4875L104.069 79.9311L108.647 74.2792L121.399 90.4875H112.571Z" fill="#FFFAE4"/>
<path d="M136.098 90.8612C133.233 90.8612 130.711 90.3007 128.531 89.1797C126.383 88.0586 124.717 86.5328 123.533 84.6021C122.35 82.6403 121.758 80.4138 121.758 77.9226C121.758 75.4003 122.334 73.1738 123.487 71.2431C124.67 69.2813 126.274 67.7554 128.298 66.6655C130.322 65.5445 132.611 64.984 135.164 64.984C137.624 64.984 139.835 65.5134 141.797 66.5721C143.79 67.5997 145.362 69.0944 146.514 71.0563C147.667 72.9869 148.243 75.3068 148.243 78.016C148.243 78.2963 148.227 78.6232 148.196 78.9969C148.165 79.3395 148.134 79.6664 148.103 79.9778H127.69V75.7272H144.272L141.47 76.9884C141.47 75.6805 141.205 74.5439 140.676 73.5786C140.146 72.6132 139.415 71.8659 138.48 71.3365C137.546 70.776 136.456 70.4957 135.211 70.4957C133.965 70.4957 132.86 70.776 131.894 71.3365C130.96 71.8659 130.228 72.6288 129.699 73.6253C129.17 74.5906 128.905 75.7428 128.905 77.0818V78.2029C128.905 79.573 129.201 80.7875 129.792 81.8462C130.415 82.8738 131.272 83.6679 132.361 84.2284C133.482 84.7578 134.79 85.0225 136.285 85.0225C137.624 85.0225 138.792 84.8201 139.788 84.4153C140.816 84.0104 141.75 83.4032 142.591 82.5936L146.468 86.7975C145.316 88.1053 143.868 89.1174 142.124 89.8336C140.38 90.5187 138.371 90.8612 136.098 90.8612Z" fill="#FFFAE4"/>
<path d="M163.37 90.8612C160.412 90.8612 158.108 90.1139 156.457 88.6192C154.807 87.0933 153.981 84.8357 153.981 81.8462V59.7992H161.268V81.7528C161.268 82.8116 161.548 83.6368 162.109 84.2284C162.67 84.7889 163.432 85.0692 164.398 85.0692C165.55 85.0692 166.531 84.7578 167.34 84.135L169.302 89.2731C168.555 89.8025 167.652 90.2073 166.593 90.4875C165.566 90.7367 164.491 90.8612 163.37 90.8612ZM150.105 71.5234V65.9182H167.527V71.5234H150.105Z" fill="#FFFAE4"/>
</svg>
